<svg xmlns="http://www.w3.org/2000/svg" viewBox="0 0 210.75 44.57"><title>Asset 1</title><polygon points="7.12 17.12 7.98 16.25 10.96 19.24 14.02 16.18 7.06 9.21 4 12.28 6.81 15.09 5.95 15.95 3.15 13.13 0.05 16.22 3.88 20.04 0.07 23.85 0 23.92 3.14 27.05 10.11 20.09 7.12 17.12" fill="#1e1e1e"/><polygon points="21.57 8.62 22.43 9.47 19.45 12.46 22.51 15.52 29.47 8.56 26.41 5.5 23.6 8.3 22.74 7.45 25.56 4.64 22.46 1.55 18.64 5.37 14.77 1.5 11.63 4.64 18.59 11.6 21.57 8.62" fill="#1e1e1e"/><polygon points="18.57 28.58 15.59 31.56 14.73 30.7 17.65 27.79 17.72 27.72 14.73 24.73 14.66 24.66 7.76 31.55 7.69 31.62 10.69 34.61 10.75 34.68 13.57 31.88 14.42 32.73 11.68 35.47 11.61 35.54 14.63 38.56 14.7 38.63 18.52 34.81 22.33 38.61 22.4 38.68 25.47 35.61 25.54 35.54 18.64 28.65 18.57 28.58" fill="#1e1e1e"/><polygon points="37.18 16.25 34.04 13.12 27.07 20.08 30.06 23.06 29.2 23.92 26.21 20.93 23.22 23.93 23.15 24 30.05 30.89 30.12 30.96 33.11 27.97 33.18 27.9 30.37 25.09 31.23 24.23 34.03 27.04 37.05 24.02 37.13 23.95 33.3 20.13 37.18 16.25" fill="#1e1e1e"/><path d="M14.87,15.33l.07-.07.79-.79c.34-.35,2-2.19.36-3.85L16,10.55a2.61,2.61,0,0,0-2.77-.42h0c-.13,0-.21.07-.26,0s0-.29.07-.39l0-.06A3.5,3.5,0,0,0,13.24,9a2.1,2.1,0,0,0-.62-1.87L12.48,7c-1.61-1.47-3.65.41-4,.8l-.54.53,6.89,6.89Z" fill="#1e1e1e"/><path d="M23.35,16.36l.07.07.79.79a3.58,3.58,0,0,0,2.26,1.06,2.26,2.26,0,0,0,1.59-.69l.08-.08a2.62,2.62,0,0,0,.42-2.76l-.09,0h0l.08-.07c0-.13-.07-.21,0-.26s.29,0,.39.07l.06,0a3.19,3.19,0,0,0,.69.19,2.1,2.1,0,0,0,1.87-.62l.13-.14c1.47-1.62-.41-3.65-.8-4l-.53-.54-6.89,6.9Z" fill="#1e1e1e"/><path d="M22.31,24.84l-.07.07-.79.79c-1.95,2-.65,3.55-.37,3.85l.08.08a2.59,2.59,0,0,0,2.77.42h0c.12,0,.2-.07.25,0s0,.3-.07.39l0,.06a3.49,3.49,0,0,0-.19.69A2.09,2.09,0,0,0,24.55,33l.14.13a2,2,0,0,0,1.38.55,4.36,4.36,0,0,0,2.67-1.36l.53-.53-6.89-6.89Z" fill="#1e1e1e"/><path d="M13.81,23.81l-.07-.07L13,23C11,21,9.4,22.31,9.1,22.59L9,22.67a2.59,2.59,0,0,0-.42,2.77v0c0,.12.07.2,0,.25s-.3,0-.39-.07l-.06,0a3.49,3.49,0,0,0-.69-.19,2.09,2.09,0,0,0-1.87.62l-.13.14A2,2,0,0,0,5,27.58a4.36,4.36,0,0,0,1.36,2.67l.53.53,6.89-6.89Z" fill="#1e1e1e"/><path d="M46.12,0h1.75V6.65h8.56V0h1.75V16H56.43V8.18H47.87V16H46.12Z" fill="#1e1e1e"/><path d="M66.42,14.22l3.84-8.56h1.68l-5.05,11c-.76,1.69-1.6,4.25-3.86,4.25a5.59,5.59,0,0,1-1.8-.34V18.8a2.18,2.18,0,0,0,1.44.61c.94,0,1.53-.54,2.87-3.37L60.87,5.66h1.69Z" fill="#1e1e1e"/><path d="M74.21,5.66h1.62V7.19h0a4.36,4.36,0,0,1,3.66-1.93c3,0,4.52,2.61,4.52,5.59s-1.55,5.59-4.52,5.59a4.1,4.1,0,0,1-3.66-1.89h0v7.1H74.21Zm4.92,9.57c2.33,0,3.3-2,3.3-4.38s-1-4.38-3.3-4.38-3.3,2-3.3,4.38S76.79,15.23,79.13,15.23Z" fill="#1e1e1e"/><path d="M86.53,10.85c0-3.71,2.47-5.59,5.37-5.59s5.37,1.89,5.37,5.59-2.47,5.59-5.37,5.59S86.53,14.55,86.53,10.85Zm9.12,0c0-2.7-1.44-4.38-3.75-4.38s-3.75,1.68-3.75,4.38,1.44,4.38,3.75,4.38S95.65,13.54,95.65,10.85Z" fill="#1e1e1e"/><path d="M100.72,2.25h1.62V5.66h2.54V6.87h-2.54v6.65c0,.94.25,1.57,1,1.57a3.14,3.14,0,0,0,1.57-.54v1.5a5.78,5.78,0,0,1-1.75.38c-1.71,0-2.45-.85-2.45-2.83V6.87h-1.5V5.66h1.5Z" fill="#1e1e1e"/><path d="M115,16V8.85a2.13,2.13,0,0,0-2.13-2.38c-1.73,0-3.26,1.35-3.26,4V16H108V0h1.62V7.43h0a3.81,3.81,0,0,1,3.53-2.18c2.09,0,3.44,1.53,3.44,3.77v7Z" fill="#1e1e1e"/><path d="M121,11.12c0,2.4,1.28,4.11,3.59,4.11,1.73,0,2.74-.56,3.32-2h1.66c-.6,2.27-2.56,3.17-4.85,3.17-3.19,0-5.35-1.73-5.35-5.61,0-3.08,1.53-5.57,5.3-5.57s4.87,2.58,5,5.86Zm6.92-1.21c-.24-2.27-1.12-3.44-3.23-3.44A3.57,3.57,0,0,0,121,9.91Z" fill="#1e1e1e"/><path d="M132.47,0h1.62V10.47l5.28-4.8h2.29L137.5,9.39,142.12,16h-2l-3.8-5.61-2.22,2V16h-1.62Z" fill="#1e1e1e"/><path d="M144.19,8.51c.52-2.7,2.25-3.26,4.72-3.26,2.94,0,4,1.24,4,4V14a4,4,0,0,0,.47,2.07h-1.73a10.12,10.12,0,0,1-.36-1.55,4.59,4.59,0,0,1-3.82,2c-1.93,0-3.7-1-3.7-3.05,0-5.48,7.52-2.2,7.52-5.24,0-1.21-1.53-1.68-2.65-1.68-1.41,0-2.62.49-2.81,2Zm7.07,1.42a10.74,10.74,0,0,1-4,1.17,2.07,2.07,0,0,0-1.93,2,2.18,2.18,0,0,0,2.43,2.16A3.41,3.41,0,0,0,151.26,12Z" fill="#1e1e1e"/><path d="M156.4,5.66H158V7.88h0a4.73,4.73,0,0,1,4.61-2.63V6.61c-3.1,0-4.65,1.48-4.65,4.27V16H156.4Z" fill="#1e1e1e"/><path d="M164.77,0h1.62V7.14h0a4.09,4.09,0,0,1,3.66-1.89c3,0,4.51,2.61,4.51,5.59s-1.55,5.59-4.51,5.59a4.35,4.35,0,0,1-3.66-1.93h0V16h-1.62Zm4.92,15.23c2.34,0,3.3-2,3.3-4.38s-1-4.38-3.3-4.38-3.3,2-3.3,4.38S167.36,15.23,169.69,15.23Z" fill="#1e1e1e"/><path d="M177.41,8.51c.52-2.7,2.25-3.26,4.72-3.26,2.94,0,4,1.24,4,4V14a4,4,0,0,0,.47,2.07h-1.73a9.68,9.68,0,0,1-.36-1.55,4.6,4.6,0,0,1-3.82,2c-1.93,0-3.71-1-3.71-3.05,0-5.48,7.53-2.2,7.53-5.24,0-1.21-1.53-1.68-2.65-1.68-1.42,0-2.63.49-2.81,2Zm7.08,1.42a10.8,10.8,0,0,1-4,1.17,2.07,2.07,0,0,0-1.93,2A2.17,2.17,0,0,0,181,15.23,3.41,3.41,0,0,0,184.49,12Z" fill="#1e1e1e"/><path d="M196.32,16V8.85a2.13,2.13,0,0,0-2.13-2.38c-1.73,0-3.26,1.35-3.26,4V16h-1.62V5.66h1.62V7.43h0a3.81,3.81,0,0,1,3.53-2.18c2.08,0,3.43,1.53,3.43,3.77v7Z" fill="#1e1e1e"/><path d="M201.1,0h1.62V10.47L208,5.66h2.29l-4.15,3.73L210.75,16h-2l-3.79-5.61-2.22,2V16H201.1Z" fill="#1e1e1e"/><path d="M46.05,24.21h1.71V38.29H56v1.58H46.05Z" fill="#1e1e1e"/><path d="M59.24,35.07c0,2.35,1.25,4,3.51,4,1.69,0,2.68-.55,3.24-1.91h1.62c-.59,2.21-2.5,3.1-4.74,3.1-3.12,0-5.22-1.69-5.22-5.48,0-3,1.49-5.44,5.18-5.44s4.76,2.53,4.87,5.73ZM66,33.89c-.24-2.21-1.1-3.36-3.16-3.36a3.49,3.49,0,0,0-3.6,3.36Z" fill="#1e1e1e"/><path d="M77.33,39.87v-7a2.08,2.08,0,0,0-2.08-2.33c-1.69,0-3.18,1.32-3.18,3.91v5.44H70.49V29.74h1.58v1.73h0a3.72,3.72,0,0,1,3.44-2.13c2,0,3.35,1.49,3.35,3.69v6.85Z" fill="#1e1e1e"/><path d="M81.72,29.74h8v1.49l-6.4,7.37h6.4v1.27H81.42V38.41L87.8,31H81.72Z" fill="#1e1e1e"/><path d="M92.18,24.21h1.58v7h0a4,4,0,0,1,3.57-1.84c2.89,0,4.41,2.55,4.41,5.46s-1.51,5.46-4.41,5.46a4.25,4.25,0,0,1-3.57-1.89h0v1.49H92.18ZM97,39.08c2.28,0,3.22-2,3.22-4.28s-.94-4.28-3.22-4.28-3.22,2-3.22,4.28S94.71,39.08,97,39.08Z" fill="#1e1e1e"/><path d="M105.74,29.74v7a2.08,2.08,0,0,0,2.08,2.32c1.69,0,3.18-1.32,3.18-3.9V29.74h1.58V39.87H111V38.14h0a3.71,3.71,0,0,1-3.44,2.13c-2,0-3.35-1.49-3.35-3.69V29.74Z" fill="#1e1e1e"/><path d="M115.54,29.74h1.58v2.17h0a4.63,4.63,0,0,1,4.5-2.57v1.32c-3,0-4.54,1.45-4.54,4.17v5h-1.58Z" fill="#1e1e1e"/><path d="M132.34,29.74v9.65c0,2.85-1.07,5.18-5,5.18-2.56,0-4-1.67-4-3.12v0h1.54c.22,1.49,1.38,2,2.65,2,1.89,0,3.31-1.27,3.31-3.6V38.47h0a4.4,4.4,0,0,1-3.58,1.8c-2.89,0-4.41-2.54-4.41-5.46s1.51-5.46,4.41-5.46a4,4,0,0,1,3.58,1.84h0V29.74Zm-4.8,9.34c2.28,0,3.23-2,3.23-4.28s-.94-4.28-3.23-4.28-3.22,2-3.22,4.28S125.26,39.08,127.54,39.08Z" fill="#1e1e1e"/></svg>