<svg xmlns="http://www.w3.org/2000/svg" xmlns:xlink="http://www.w3.org/1999/xlink" viewBox="0 0 499.38 36.76"><defs><clipPath id="a"><circle cx="16.15" cy="19.07" r="16.15" fill="none"/></clipPath><radialGradient id="b" cx="19.11" cy="14.26" r="14.26" gradientUnits="userSpaceOnUse"><stop offset="0" stop-color="gray"/><stop offset="1"/></radialGradient></defs><title>Asset 1</title><path d="M64.79,2h3V18.3l7-7.54h3.68l-6.46,7,8,10.66H76.19L69.95,20l-2.12,2.27v6.2h-3Z"/><path d="M98.17,28.44h-3V26.07h-.07a5.91,5.91,0,0,1-5.2,2.82c-3.57,0-6.28-1.56-6.28-6.5V10.69h3v11.7c0,2.53,1.56,3.68,3.75,3.68a4.44,4.44,0,0,0,4.75-4.68V10.69h3Z"/><path d="M103.71,2h3V28.44h-3Z"/><path d="M110.58,10.69h2.93V5.16h3v5.53h3.31v2.6h-3.31V24.58c0,.85,0,1.71,1.23,1.71a5.54,5.54,0,0,0,1.89-.37v2.6a13.9,13.9,0,0,1-3,.37c-3.16,0-3.16-1.49-3.16-3.49V13.29h-2.93Z"/><path d="M138.5,28.44h-3V26.07h-.07a5.91,5.91,0,0,1-5.2,2.82c-3.57,0-6.28-1.56-6.28-6.5V10.69h3v11.7c0,2.53,1.56,3.68,3.75,3.68a4.44,4.44,0,0,0,4.75-4.68V10.69h3Z"/><path d="M144.11,10.69h3v3h.07c1.45-2.41,3.19-3.27,6.28-3.27v3.34c-.59,0-1.52-.07-2-.07-2.93,0-4.31,2.71-4.31,4.75v10h-3Z"/><path d="M157.41,2h3V18.3l7-7.54h3.68l-6.46,7,8,10.66h-3.83L162.57,20l-2.12,2.27v6.2h-3Z"/><path d="M183.63,10.24c5.42,0,8.69,3.94,8.69,9.32s-3.27,9.32-8.69,9.32-8.69-3.94-8.69-9.32S178.2,10.24,183.63,10.24Zm0,16.27c4.38,0,5.42-4,5.42-6.95s-1-6.95-5.42-6.95-5.42,4-5.42,6.95S179.24,26.51,183.63,26.51Z"/><path d="M196.85,10.69h2.82v2.23h.07a6.46,6.46,0,0,1,5-2.67,5.33,5.33,0,0,1,5.16,3.08,7.35,7.35,0,0,1,5.39-3.08c2.9,0,5.79,1.26,5.79,6.46V28.44h-3V16.56c0-2.19-1-3.49-3.12-3.49-1.89,0-4.42,1-4.42,3.71V28.44h-3V16.56c0-2.19-1-3.49-3.12-3.49-1.89,0-4.42,1-4.42,3.71V28.44h-3Z"/><path d="M226.67,10.69h2.82v2.23h.07a6.46,6.46,0,0,1,5-2.67,5.33,5.33,0,0,1,5.16,3.08,7.35,7.35,0,0,1,5.39-3.08c2.9,0,5.79,1.26,5.79,6.46V28.44h-3V16.56c0-2.19-1-3.49-3.12-3.49-1.89,0-4.42,1-4.42,3.71V28.44h-3V16.56c0-2.19-1-3.49-3.12-3.49-1.89,0-4.42,1-4.42,3.71V28.44h-3Z"/><path d="M256.42,2h3V5.49h-3Zm0,8.69h3V28.44h-3Z"/><path d="M267,22.2c0,3.3,2.6,4.31,5.05,4.31,1.41,0,4-.45,4-3,0-4.42-11.59-1.11-11.59-8.06,0-3.6,3.53-5.16,6.69-5.16,2.41,0,7.61,1.23,7.61,5.79l-3,.41c0-2.6-2.12-3.83-4.42-3.83-1.63,0-3.79.48-3.79,2.64,0,4,11.81,1.15,11.81,8.17,0,3.75-3.83,5.46-7.69,5.46s-7.46-1.78-7.87-6.28Z"/><path d="M285.79,22.2c0,3.3,2.6,4.31,5.05,4.31,1.41,0,4-.45,4-3,0-4.42-11.59-1.11-11.59-8.06,0-3.6,3.53-5.16,6.68-5.16,2.41,0,7.61,1.23,7.61,5.79l-3,.41c0-2.6-2.12-3.83-4.42-3.83-1.63,0-3.79.48-3.79,2.64,0,4,11.81,1.15,11.81,8.17,0,3.75-3.83,5.46-7.69,5.46s-7.46-1.78-7.87-6.28Z"/><path d="M302.43,2h3V5.49h-3Zm0,8.69h3V28.44h-3Z"/><path d="M318.62,10.24c5.42,0,8.69,3.94,8.69,9.32s-3.27,9.32-8.69,9.32-8.69-3.94-8.69-9.32S313.2,10.24,318.62,10.24Zm0,16.27c4.38,0,5.42-4,5.42-6.95s-1-6.95-5.42-6.95-5.42,4-5.42,6.95S314.24,26.51,318.62,26.51Z"/><path d="M331.84,10.69h3v2.38H335a5.91,5.91,0,0,1,5.2-2.82c3.57,0,6.28,1.56,6.28,6.5v11.7h-3V17c0-3-1.6-4-3.75-4a4.44,4.44,0,0,0-4.75,4.68v10.7h-3Z"/><path d="M362.3,2h3V28.44h-3Z"/><path d="M373.07,20.24c0,3.53,1.86,6.28,5.35,6.28a4.7,4.7,0,0,0,5-4l3,.37a7.87,7.87,0,0,1-8.1,6c-5.42.11-8.5-4.12-8.5-9.17,0-5.76,2.71-9.47,8.47-9.47,5.57,0,8.28,4,8.28,9.29v.71Zm10.21-2.38c-.37-2.9-2-5.24-5.35-5.24-3,0-4.68,2.53-4.87,5.24Z"/><path d="M391.08,10.69h3v2.38h.07a5.91,5.91,0,0,1,5.2-2.82c3.56,0,6.28,1.56,6.28,6.5v11.7h-3V17c0-3-1.6-4-3.75-4a4.44,4.44,0,0,0-4.75,4.68v10.7h-3Z"/><path d="M409.83,25.84,420,13.29h-9.21v-2.6h13v2.53L413.44,25.84h10.51v2.6H409.83Z"/><path d="M427.88,2h3V12.92H431a6.73,6.73,0,0,1,5.68-2.67c6.09,0,8.47,4.57,8.47,9.32s-2.15,9.32-8.73,9.32A6.71,6.71,0,0,1,431,26.33h0v2.12h-3Zm8.47,10.84c-3.53,0-5.53,3.19-5.53,6.72s1.6,6.72,5.53,6.72,5.53-3.19,5.53-6.72S440.29,12.84,436.35,12.84Z"/><path d="M464.28,28.44h-3V26.07h-.07a5.91,5.91,0,0,1-5.2,2.82c-3.56,0-6.28-1.56-6.28-6.5V10.69h3v11.7c0,2.53,1.56,3.68,3.75,3.68a4.44,4.44,0,0,0,4.75-4.68V10.69h3Z"/><path d="M469.89,10.69h3v3H473c1.45-2.41,3.19-3.27,6.28-3.27v3.34c-.59,0-1.52-.07-2-.07-2.93,0-4.31,2.71-4.31,4.75v10h-3Z"/><path d="M496.33,10.69h3v17.9c0,2.67-.52,8.17-8.17,8.17-4.31,0-8-1.82-8.24-6.5h3.27c-.07,2.86,2.23,4.12,4.87,4.12,5.16,0,5.24-3.64,5.24-6.17V25.69h-.07a7.11,7.11,0,0,1-6.05,3.2c-3.08,0-8.1-1.78-8.1-9.32,0-5.16,2.56-9.32,8.13-9.32,2.86,0,5,1.15,6,2.86l.07,0Zm-11.18,8.88c0,3.71,1.93,6.72,5.46,6.72s5.79-3.23,5.72-6.83c-.11-4.9-2.38-6.61-5.72-6.61C487.49,12.84,485.15,15,485.15,19.57Z"/><g clip-path="url(#a)"><circle cx="16.15" cy="19.07" r="16.15"/><circle cx="19.11" cy="14.26" r="14.26" fill="url(#b)"/></g></svg>