<svg xmlns="http://www.w3.org/2000/svg" viewBox="0 0 302.54 211.26">
  <defs>
    <style>
      .cls-1 {
        isolation: isolate;
      }
      .senf {
        fill: rgba(200, 157, 5, 1);
      }
      .senf,
      .petrol,
      .petrol-2 {
        mix-blend-mode: multiply;
      }
      .petrol,
      .petrol-2 {
      fill: rgba(0, 168, 189, 1);
      }
      .petrol-2 {
        opacity: 0.15;
      }
      .white {
        fill: white;
      }
    </style>
  </defs>
    <path class="senf" d="M299.4,114.31a75.44,75.44,0,0,0-57.86-52.57,40.45,40.45,0,1,1-28.92,0c-2.34.46-4.69,1-7,1.72a75.45,75.45,0,1,0,93.81,50.85Z"/><circle class="petrol" cx="227.07" cy="64.3" r="34.69" transform="translate(-8.93 63.85) rotate(-15.7)"/><path class="petrol" d="M52.42,16.64a4.25,4.25,0,1,1-5.29-2.87A4.25,4.25,0,0,1,52.42,16.64Z"/><path class="petrol" d="M52.42,51.06a4.25,4.25,0,1,1-5.29-2.86A4.26,4.26,0,0,1,52.42,51.06Z"/><path class="senf" d="M34.24,4.09A4.25,4.25,0,1,1,29,1.22,4.24,4.24,0,0,1,34.24,4.09Z"/><path class="senf" d="M26.09,175.08a4.25,4.25,0,1,1-5.29-2.86A4.26,4.26,0,0,1,26.09,175.08Z"/><path class="petrol" d="M127.34,188.43C97.26,199,63.6,184.31,52.16,155.52s3.69-60.73,33.77-71.35,63.74,4.12,75.18,32.91S157.43,177.81,127.34,188.43Z"/><path class="petrol-2" d="M52.16,155.56c9.63,24.25,35,38.52,60.79,36.07-16.5-5.06-30.55-17-37.16-33.64-11.44-28.79,3.68-60.73,33.76-71.35a60.59,60.59,0,0,1,14.39-3.17,60.62,60.62,0,0,0-38,.74C55.84,94.83,40.72,126.77,52.16,155.56Z"/><path class="white" d="M200.39,0H172a29,29,0,0,0,.89,40.75A51,51,0,0,0,200.39,0Z"/><path class="petrol" d="M172,0H98.94a51.23,51.23,0,0,0,1.9,9.94,50.94,50.94,0,0,0,63.33,34.32,51.23,51.23,0,0,0,8.75-3.51A29,29,0,0,1,172,0Z"/><path class="senf" d="M172.92,40.75A29,29,0,0,0,214.06,0H200.39A51,51,0,0,1,172.92,40.75Z"/><path class="senf" d="M33.08,52.86A24.26,24.26,0,0,0,1.89,38.54c-.65.24-1.27.52-1.89.8V83.22A24.24,24.24,0,0,0,33.08,52.86Z"/>
</svg>
