<svg xmlns="http://www.w3.org/2000/svg" width="379.96px" height="211.26px" viewBox="0 0 379.96 211.26">
  <defs>
    <style>
      .senf {
        fill: rgba(200, 157, 5, 1);
      }
      .senf,
      .petrol,
      .petrol-2 {
        mix-blend-mode: multiply;
      }
      .petrol,
      .petrol-2 {
        fill: rgba(0, 168, 189, 1);
      }
      .petrol-2 {
        opacity: 0.15;
      }
      .white {
        fill: white;
      }
    </style>
  </defs>
<title>Musikalische Begegnungen Lenzburg</title>      <path class="senf" d="M376.81,114.31A75.44,75.44,0,0,0,319,61.74a40.45,40.45,0,1,1-28.92,0q-3.51.69-7,1.72a75.45,75.45,0,1,0,93.8,50.85Z"/>
      <circle class="petrol" cx="304.49" cy="64.3" r="34.69" transform="translate(-6.04 84.81) rotate(-15.7)"/>
      <path class="petrol" d="M129.83,16.64a4.25,4.25,0,1,1-5.28-2.87A4.24,4.24,0,0,1,129.83,16.64Z"/>
      <path class="petrol" d="M129.83,51.06a4.25,4.25,0,1,1-5.28-2.86A4.25,4.25,0,0,1,129.83,51.06Z"/>
      <path class="petrol" d="M8.33,72.77A4.25,4.25,0,1,1,3,69.91,4.26,4.26,0,0,1,8.33,72.77Z"/><path class="senf" d="M111.65,4.09a4.25,4.25,0,1,1-5.28-2.87A4.24,4.24,0,0,1,111.65,4.09Z"/>
      <path class="senf" d="M103.5,175.08a4.25,4.25,0,1,1-5.28-2.86A4.25,4.25,0,0,1,103.5,175.08Z"/>
      <path class="senf" d="M39,84.35a4.25,4.25,0,1,1-5.28-2.86A4.25,4.25,0,0,1,39,84.35Z"/>
      <path class="senf" d="M32,54.5a4.25,4.25,0,1,1-5.29-2.87A4.25,4.25,0,0,1,32,54.5Z"/>
      <path class="petrol" d="M50.44,66.43a9.34,9.34,0,1,1,12,5.52A9.33,9.33,0,0,1,50.44,66.43Z"/>
      <path class="senf" d="M74.17,58.43a13.17,13.17,0,0,1-6.56,16.41A24.27,24.27,0,1,0,66,50.53,13.13,13.13,0,0,1,74.17,58.43Z"/>
      <path class="petrol" d="M204.76,188.43C174.67,199,141,184.31,129.58,155.52s3.68-60.73,33.76-71.35,63.75,4.12,75.18,32.91S234.84,177.81,204.76,188.43Z"/>
      <path class="petrol-2" d="M129.57,155.56c9.63,24.25,35,38.52,60.79,36.07-16.49-5.06-30.55-17-37.16-33.64C141.76,129.2,156.88,97.26,187,86.64a60.59,60.59,0,0,1,14.39-3.17,60.62,60.62,0,0,0-38,.74C133.25,94.83,118.13,126.77,129.57,155.56Z"/>
      <path class="white" d="M277.8,0H249.44a29,29,0,0,0,.89,40.75A51,51,0,0,0,277.8,0Z"/>
      <path class="petrol" d="M249.44,0H176.35a51.26,51.26,0,0,0,1.91,9.94,50.93,50.93,0,0,0,63.32,34.32,50.91,50.91,0,0,0,8.75-3.51A29,29,0,0,1,249.44,0Z"/>
      <path class="senf" d="M250.33,40.75A29,29,0,0,0,291.47,0H277.8A51,51,0,0,1,250.33,40.75Z"/>
</svg>
