<svg xmlns="http://www.w3.org/2000/svg" width="595.3px" height="175.7px" viewBox="0 0 595.3 175.7">
  <style type="text/css">
    .st0 {
      fill: rgba(0, 168, 189, 1);
    }
  </style>
  <title>Musikalische Begegnungen Lenzburg</title>
  <polygon class="st0" points="54.3,153.2 77.8,153.2 77.8,143.7 54.3,143.7 54.3,133 78.9,133 78.9,123.5 41.5,123.5 41.5,175
		79.6,175 79.6,165.5 54.3,165.5 	"/>
  <polygon class="st0" points="126.2,155.1 98.6,123.5 86.8,123.5 86.8,175 99.6,175 99.6,142 128.2,175 138.9,175 138.9,123.5
		126.1,123.5 	"/>
  <polygon class="st0" points="145.4,123.6 145.4,133.1 171.7,133.1 143.4,175 193.4,175 193.4,165.5 165.3,165.5 193.4,123.5 	"/>
  <path
    class="st0"
    d="M230.7,146.7c4.1-1.8,6.9-5.8,7-10.3c0-5.7-4.9-12.9-17.1-12.9h-22.2V175h25.1c15,0,18.2-9.2,18.2-15.1
		C241.7,154,238,148.6,230.7,146.7z M211.2,133h6.7c4.7,0,6.6,2.8,6.6,5.4s-1.9,5.6-6.6,5.6h-6.7V133z M218.5,165.6h-7.3v-12.2h9
		c4.5,0,7.9,2,7.9,5.8C228.1,163.7,225.6,165.6,218.5,165.6L218.5,165.6z"/>
  <path class="st0" d="M286.2,152.3c0,9.2-6.3,12.8-13.1,12.8c-7.4,0-12.8-4.5-12.8-11.9v-29.7h-12.8v29.3
		c0,15.9,10.8,22.8,25.8,22.8c14.1,0,25.7-5.9,25.7-23v-29.2h-12.8V152.3z"/>
  <path
    class="st0"
    d="M338.2,150.9c5.9-2.7,8.8-6.9,8.8-12.6c0-7.6-6.3-14.8-16.8-14.8h-23V175H320v-20.9h3.7c6.9,0,9,9.9,14.5,20.9
		h14.1C345,159.9,343.4,153.6,338.2,150.9z M326.7,144.6h-6.8V133h6.5c4.8,0,7.3,1.9,7.3,5.8C333.8,143.2,330.3,144.7,326.7,144.6
		L326.7,144.6z"/>
  <path
    class="st0"
    d="M383,147.7v9.5h7.5v6.1c-2.7,1.3-5.6,1.9-8.5,1.9c-10.7,0-17.8-6.1-17.8-15.2c0-7.6,4.9-16.2,18.9-16.2
		c6.7,0.1,13.3,1.7,19.3,4.7v-11.3c-6.4-2.9-13.3-4.3-20.3-4.2c-18.3,0-31,10.8-31,26.5c0,15.4,12.8,26.4,30.7,26.4
		c8.3,0,17.8-3,21.7-6.9v-21.1L383,147.7z"/>
  <path
    class="st0"
    d="M32.4,85.3c4.1-1.8,6.9-5.8,7-10.3c0-5.7-4.9-12.9-17.1-12.9H0v51.5h25.1c15,0,18.2-9.2,18.2-15.1
		C43.3,92.6,39.6,87.2,32.4,85.3z M12.8,71.6h6.7c4.7,0,6.6,2.8,6.6,5.4c0,2.6-1.9,5.6-6.6,5.6h-6.7C12.8,82.6,12.8,71.6,12.8,71.6z
		 M20.1,104.2h-7.3V92h9c4.5,0,7.9,2,7.9,5.8C29.7,102.3,27.2,104.2,20.1,104.2z"/>
  <polygon class="st0" points="62.3,91.8 85.8,91.8 85.8,82.3 62.3,82.3 62.3,71.6 86.9,71.6 86.9,62.1 49.5,62.1 49.5,113.6
		87.5,113.6 87.5,104.1 62.3,104.1 	"/>
  <path
    class="st0"
    d="M123.9,95.7h7.5v6c-2.7,1.3-5.6,1.9-8.5,1.9c-10.7,0-17.8-6-17.8-15.2c0-7.6,4.9-16.2,18.9-16.2
		c6.7,0.1,13.3,1.7,19.3,4.8V65.7c-6.4-2.8-13.3-4.3-20.3-4.2c-18.3,0-31,10.8-31,26.5c0,15.4,12.8,26.4,30.7,26.4
		c8.3,0,17.8-3,21.7-6.9V86.3H124L123.9,95.7z"/>
  <polygon class="st0" points="165.3,91.8 188.8,91.8 188.8,82.3 165.3,82.3 165.3,71.6 189.9,71.6 189.9,62.1 152.5,62.1
		152.5,113.6 190.6,113.6 190.6,104.1 165.3,104.1 	"/>
  <path
    class="st0"
    d="M227,95.7h7.5v6c-2.7,1.3-5.6,1.9-8.5,1.9c-10.7,0-17.8-6-17.8-15.2c0-7.6,4.9-16.2,18.9-16.2
		c6.7,0.1,13.3,1.7,19.3,4.8V65.7c-6.4-2.9-13.3-4.3-20.3-4.2c-18.3,0-31,10.8-31,26.5c0,15.4,12.8,26.4,30.7,26.4
		c8.3,0,17.8-3,21.7-6.9V86.3H227L227,95.7L227,95.7z"/>
  <polygon class="st0" points="295,93.6 267.6,62.1 255.8,62.1 255.8,113.6 268.7,113.6 268.7,80.6 297.2,113.6 308,113.6 308,62.1
		295.1,62.1 	"/>
  <path class="st0" d="M356,90.8c0,9.2-6.3,12.8-13.1,12.8c-7.4,0-12.8-4.5-12.8-11.9V62.1h-12.8v29.3c0,15.9,10.8,22.8,25.8,22.8
		c14.1,0,25.8-5.9,25.8-23V62.1H356L356,90.8z"/>
  <polygon class="st0" points="417.6,93.6 390.1,62.1 378.3,62.1 378.3,113.6 391.2,113.6 391.2,80.6 419.7,113.6 430.5,113.6
		430.5,62.1 417.7,62.1 	"/>
  <path
    class="st0"
    d="M470.3,95.7h7.5v6c-2.7,1.3-5.6,1.9-8.5,1.9c-10.7,0-17.8-6-17.8-15.2c0-7.6,4.9-16.2,18.9-16.2
		c6.7,0.1,13.3,1.7,19.3,4.8V65.7c-6.4-2.9-13.3-4.3-20.3-4.2c-18.3,0-31,10.8-31,26.5c0,15.4,12.8,26.4,30.7,26.4
		c8.3,0,17.8-3,21.7-6.9V86.3h-20.3L470.3,95.7L470.3,95.7z"/>
  <polygon class="st0" points="511.8,91.8 535.3,91.8 535.3,82.3 511.8,82.3 511.8,71.6 536.5,71.6 536.5,62.1 499,62.1 499,113.6
		537.1,113.6 537.1,104.1 511.8,104.1 	"/>
  <polygon class="st0" points="583,62.1 583,93.6 555.5,62.1 543.7,62.1 543.7,113.6 556.6,113.6 556.6,80.6 585.1,113.6
		595.9,113.6 595.9,62.1 	"/>
  <polygon class="st0" points="27.7,19.8 11.2,0.7 0,0.7 0,52.2 12.8,52.2 12.8,20 26.7,36.2 28.7,36.2 42.6,20 42.6,52.2 55.4,52.2
		55.4,0.7 44.2,0.7 	"/>
  <path class="st0" d="M102.2,29.4c0,9.2-6.3,12.8-13.1,12.8c-7.4,0-12.8-4.5-12.8-11.9V0.7H63.5V30c0,15.9,10.8,22.8,25.8,22.8
		c14.1,0,25.7-5.9,25.7-23V0.7h-12.8L102.2,29.4L102.2,29.4z"/>
  <path
    class="st0"
    d="M134.2,13.7c0-2.6,2.9-4.2,7.6-4.2s8.8,1.3,16.3,4.6V4c-5.5-2.6-11.5-3.9-17.5-4C128.7,0,121,5.9,121,14.8
		c0,18.5,26.2,15.4,26.2,23.9c0,3-2.6,4.8-7.6,4.8c-5.7,0-10.2-1.7-17.6-6.6v11.1c5.6,3.4,12,5.1,18.6,5c11.4,0,19.8-5.7,19.8-15.6
		C160.4,19.3,134.2,21.5,134.2,13.7z"/>
  <rect x="166.3" y="0.7" class="st0" width="12.8" height="51.5"/>
  <path class="st0" d="M250.6,0.7L232.8,45L216,24.9l16.8-24.2h-14.1L202.4,24h-0.2V0.7h-12.8v51.5h12.8V28l20.4,24.2h20.8l3.8-10.2
		h23l4.2,10.2h13.8L265.5,0.7L250.6,0.7L250.6,0.7z M250.6,33.1l7.6-20l8.3,20H250.6z"/>
  <polygon class="st0" points="304,0.7 291.2,0.7 291.2,52.2 327.2,52.2 327.2,42.8 304,42.8 	"/>
  <rect x="331.3" y="0.7" class="st0" width="12.8" height="51.5"/>
  <path
    class="st0"
    d="M364.7,13.7c0-2.6,3-4.2,7.6-4.2c4.7,0,8.8,1.3,16.3,4.6V4c-5.5-2.6-11.4-3.9-17.5-4
		c-11.9,0-19.6,5.9-19.6,14.8c0,18.5,26.2,15.4,26.2,23.9c0,3-2.6,4.8-7.6,4.8c-5.7,0-10.2-1.7-17.6-6.6v11.1c5.6,3.4,12,5.1,18.6,5
		c11.4,0,19.8-5.7,19.8-15.6C390.9,19.3,364.7,21.5,364.7,13.7z"/>
  <path
    class="st0"
    d="M408.5,26.4c0-9.1,7.6-15.6,18.7-15.6c6.3,0.2,12.4,2,17.8,5.3V4.6c-5.7-3.2-12.2-4.8-18.7-4.6
		c-19.7,0-31,12.8-31,26.6c0,13.3,10,26.3,30,26.3c7.1,0.1,14.1-1.7,20.3-5.1V36.5c-7.4,3.6-11.9,5.7-18.7,5.7
		C416.1,42.1,408.5,35.6,408.5,26.4z"/>
  <polygon class="st0" points="489.9,21.4 464.2,21.4 464.2,0.7 451.3,0.7 451.3,52.2 464.2,52.2 464.2,31.4 489.9,31.4 489.9,52.2
		502.7,52.2 502.7,0.7 489.9,0.7 	"/>
  <polygon class="st0" points="523.6,42.8 523.6,30.4 547.1,30.4 547.1,20.9 523.6,20.9 523.6,10.1 548.3,10.1 548.3,0.7 510.8,0.7
		510.8,52.2 548.8,52.2 548.8,42.8 	"/>
  <path class="st0" d="M36,175H0v-51.5h12.8v42.1H36V175z"/>
</svg>
